<svg xmlns="http://www.w3.org/2000/svg" viewBox="0 0 64 64">
  <defs>
    <linearGradient id="g1" x1="0%" y1="0%" x2="100%" y2="100%">
      <stop offset="0%" stop-color="#0e2535"/>
      <stop offset="50%" stop-color="#0d9488"/>
      <stop offset="100%" stop-color="#34d399"/>
    </linearGradient>
    <linearGradient id="g2" x1="0%" y1="100%" x2="100%" y2="0%">
      <stop offset="0%" stop-color="#06b6d4"/>
      <stop offset="100%" stop-color="#10b981"/>
    </linearGradient>
  </defs>
  <!-- Leaf shape -->
  <path d="M32 4 C12 18 8 38 32 60 C56 38 52 18 32 4Z" fill="url(#g1)" opacity="0.9"/>
  <!-- Neural network nodes -->
  <circle cx="32" cy="18" r="3" fill="url(#g2)"/>
  <circle cx="22" cy="30" r="2.5" fill="url(#g2)"/>
  <circle cx="42" cy="30" r="2.5" fill="url(#g2)"/>
  <circle cx="27" cy="42" r="2.5" fill="url(#g2)"/>
  <circle cx="37" cy="42" r="2.5" fill="url(#g2)"/>
  <circle cx="32" cy="52" r="2" fill="url(#g2)"/>
  <!-- Connections -->
  <line x1="32" y1="18" x2="22" y2="30" stroke="#67e8f9" stroke-width="1" opacity="0.7"/>
  <line x1="32" y1="18" x2="42" y2="30" stroke="#67e8f9" stroke-width="1" opacity="0.7"/>
  <line x1="22" y1="30" x2="27" y2="42" stroke="#67e8f9" stroke-width="1" opacity="0.7"/>
  <line x1="42" y1="30" x2="37" y2="42" stroke="#67e8f9" stroke-width="1" opacity="0.7"/>
  <line x1="22" y1="30" x2="42" y2="30" stroke="#67e8f9" stroke-width="0.8" opacity="0.5"/>
  <line x1="27" y1="42" x2="37" y2="42" stroke="#67e8f9" stroke-width="0.8" opacity="0.5"/>
  <line x1="27" y1="42" x2="32" y2="52" stroke="#67e8f9" stroke-width="1" opacity="0.7"/>
  <line x1="37" y1="42" x2="32" y2="52" stroke="#67e8f9" stroke-width="1" opacity="0.7"/>
  <!-- Center vein -->
  <line x1="32" y1="12" x2="32" y2="55" stroke="#a7f3d0" stroke-width="0.8" opacity="0.4"/>
</svg>
